<svg width="24" height="24" viewBox="0 0 24 24" fill="none" xmlns="http://www.w3.org/2000/svg">
<path fill-rule="evenodd" clip-rule="evenodd" d="M6 2H18C20.2091 2 22 3.79086 22 6V18C22 20.2091 20.2091 22 18 22H6C3.79086 22 2 20.2091 2 18V6C2 3.79086 3.79086 2 6 2ZM19.7678 19.7678C20.2366 19.2989 20.5 18.663 20.5 18V6C20.5 5.33696 20.2366 4.70107 19.7678 4.23223C19.2989 3.76339 18.663 3.5 18 3.5H6C4.61929 3.5 3.5 4.61929 3.5 6V18C3.5 18.663 3.76339 19.2989 4.23223 19.7678C4.70107 20.2366 5.33696 20.5 6 20.5H18C18.663 20.5 19.2989 20.2366 19.7678 19.7678Z" fill="#222338"/>
<path d="M15.69 8.73C15.3972 8.43755 14.9228 8.43755 14.63 8.73L12.21 11.15L9.79 8.73C9.49449 8.45464 9.03399 8.46277 8.74838 8.74838C8.46277 9.03399 8.45464 9.49449 8.73 9.79L11.15 12.21L8.73 14.63C8.43755 14.9228 8.43755 15.3972 8.73 15.69C9.02282 15.9825 9.49718 15.9825 9.79 15.69L12.21 13.27L14.63 15.69C14.7705 15.8307 14.9612 15.9098 15.16 15.91C15.358 15.9057 15.5472 15.8272 15.69 15.69C15.9825 15.3972 15.9825 14.9228 15.69 14.63L13.27 12.21L15.69 9.79C15.9825 9.49718 15.9825 9.02282 15.69 8.73Z" fill="#222338"/>
</svg>
