<svg width="16" height="16" viewBox="0 0 16 16" fill="none" xmlns="http://www.w3.org/2000/svg">
<g clip-path="url(#clip0_208_247)">
<path d="M7.99985 0C3.58898 0 0 3.5872 0 7.99919C0 12.4095 3.58898 15.9984 7.99985 15.9984C12.4112 15.9984 16 12.4095 16 7.99919C16 3.5872 12.4112 0 7.99985 0ZM7.99985 14.2162C4.57127 14.2162 1.78223 11.4273 1.78223 7.99924C1.78223 4.56966 4.57127 1.7808 7.99985 1.7808C11.4288 1.7808 14.2179 4.56971 14.2179 7.99924C14.2178 11.4273 11.4288 14.2162 7.99985 14.2162Z" fill="#E0E0E0"/>
<path d="M10.6287 9.44704C10.1177 10.324 9.16736 10.868 8.14876 10.868C6.56695 10.868 5.27847 9.57984 5.27847 7.99798C5.27847 6.41482 6.56695 5.12621 8.14876 5.12621C9.16741 5.12621 10.1177 5.67222 10.6287 6.54745L10.6947 6.66183H12.6228L12.507 6.35142C12.1715 5.46261 11.5829 4.70691 10.8036 4.16752C10.0224 3.62674 9.10475 3.33984 8.14876 3.33984C5.58065 3.33984 3.49219 5.43009 3.49219 7.99798C3.49219 10.566 5.58065 12.6543 8.14876 12.6543C9.10475 12.6543 10.0223 12.3684 10.8036 11.8268C11.5829 11.2873 12.1715 10.5318 12.507 9.64302L12.6228 9.33244H10.6947L10.6287 9.44704Z" fill="#E0E0E0"/>
</g>
<defs>
<clipPath id="clip0_208_247">
<rect width="16" height="16" fill="white"/>
</clipPath>
</defs>
</svg>
