<svg width="20" height="16" viewBox="0 0 20 16" fill="none" xmlns="http://www.w3.org/2000/svg">
<path d="M12 15H2C1.44772 15 1 14.5523 1 14V2C1 1.72386 1.11193 1.47386 1.29289 1.29289C1.47386 1.11193 1.72386 1 2 1H18C18.2761 1 18.5261 1.11193 18.7071 1.29289C18.8881 1.47386 19 1.72386 19 2V14C19 14.5523 18.5523 15 18 15H16" stroke="#001A72" stroke-width="1.5" stroke-linecap="round" stroke-linejoin="round"/>
<path d="M1.29297 1.29291L3.00012 3.00006" stroke="#001A72" stroke-width="1.5" stroke-linecap="round" stroke-linejoin="round"/>
<path d="M18.7071 1.29285L11.4142 8.5857C10.6331 9.3668 9.3668 9.3668 8.5857 8.5857L6 6" stroke="#001A72" stroke-width="1.5" stroke-linecap="round" stroke-linejoin="round"/>
</svg>
