<svg width="18" height="19" viewBox="0 0 18 19" fill="none" xmlns="http://www.w3.org/2000/svg">
<path d="M10.7778 18H1.88889C1.39797 18 1 17.4564 1 16.7857V2.21429C1 1.87897 1.09949 1.5754 1.26035 1.35565C1.42121 1.13592 1.64343 1 1.88889 1H16.1111C16.3565 1 16.5788 1.13592 16.7396 1.35565C16.9005 1.5754 17 1.87897 17 2.21429V16.7857C17 17.4564 16.602 18 16.1111 18H14.3333" stroke="#001A72" stroke-width="1.5" stroke-linecap="round" stroke-linejoin="round"/>
<path d="M1.26025 1.35559L2.77772 3.42856" stroke="#001A72" stroke-width="1.5" stroke-linecap="round" stroke-linejoin="round"/>
<path d="M16.7397 1.35547L10.2571 10.2111C9.56277 11.1596 8.43717 11.1596 7.74286 10.2111L5.44446 7.07129" stroke="#001A72" stroke-width="1.5" stroke-linecap="round" stroke-linejoin="round"/>
</svg>
