<svg width="32" height="32" viewBox="0 0 32 32" fill="none" xmlns="http://www.w3.org/2000/svg">
<path d="M22.4267 20.6467C21.9402 20.4023 21.3475 20.5919 21.0934 21.0734C20.8585 21.5639 21.0527 22.1524 21.5334 22.4067C22.7067 23.0067 23.3734 23.7401 23.3734 24.4467C23.3734 25.9534 20.2267 27.6334 16.0134 27.6334C11.8 27.6334 8.64002 25.9667 8.64002 24.5001C8.64002 23.8067 9.30669 23.0601 10.48 22.4601C10.8319 22.319 11.0737 21.991 11.1045 21.6132C11.1354 21.2354 10.9499 20.8726 10.6255 20.6763C10.3012 20.4801 9.89376 20.4841 9.57335 20.6867C7.95455 21.2969 6.82599 22.7774 6.66669 24.5001C6.66669 27.4601 10.6667 29.6867 16 29.6867C21.3334 29.6867 25.3334 27.4601 25.3334 24.5001C25.1888 22.7625 24.0577 21.2631 22.4267 20.6467Z" fill="#6B7280"/>
<path fill-rule="evenodd" clip-rule="evenodd" d="M15 25.0867V19.3267C10.6092 18.7977 7.39006 14.9405 7.65504 10.5258C7.92002 6.11123 11.5775 2.66675 16 2.66675C20.4226 2.66675 24.08 6.11123 24.345 10.5258C24.61 14.9405 21.3908 18.7977 17 19.3267V25.0867C17 25.639 16.5523 26.0867 16 26.0867C15.4477 26.0867 15 25.639 15 25.0867ZM21.899 8.58826C20.9091 6.2055 18.5802 4.65466 16 4.66006C12.4905 4.66739 9.64736 7.51057 9.64002 11.0201C9.63463 13.6002 11.1855 15.9291 13.5682 16.919C15.951 17.9089 18.6955 17.3645 20.52 15.54C22.3444 13.7155 22.8889 10.971 21.899 8.58826Z" fill="#6B7280"/>
<path d="M12.7867 12.5001C13.339 12.5001 13.7867 12.0523 13.7867 11.5001C13.7867 9.96839 15.0284 8.72672 16.56 8.72672C17.1123 8.72672 17.56 8.27901 17.56 7.72672C17.56 7.17444 17.1123 6.72672 16.56 6.72672C15.2905 6.73026 14.0744 7.23795 13.1792 8.13813C12.2841 9.0383 11.7831 10.2572 11.7867 11.5267C11.7902 11.7884 11.8975 12.038 12.0851 12.2205C12.2726 12.4031 12.525 12.5036 12.7867 12.5001Z" fill="#6B7280"/>
</svg>
