<svg width="32" height="32" viewBox="0 0 32 32" fill="none" xmlns="http://www.w3.org/2000/svg">
<path fill-rule="evenodd" clip-rule="evenodd" d="M20.4536 4.29333L29.7869 13.6267C29.9745 13.814 30.08 14.0682 30.0802 14.3333V16.64C30.0755 19.0903 28.6579 21.318 26.4402 22.36V22.92C26.4329 26.1423 23.8225 28.7527 20.6002 28.76H8.50689C6.9464 28.7601 5.45078 28.1357 4.35363 27.026C3.25648 25.9163 2.64907 24.4137 2.66688 22.8533V15.6C2.70347 13.25 4.14213 11.1498 6.32022 10.2667C6.3567 6.80012 9.17348 4.00711 12.6402 4H19.7469C20.012 4.00023 20.2662 4.10574 20.4536 4.29333ZM26.5736 13.24L20.8802 7.54667V11.68C20.8802 12.5416 21.5787 13.24 22.4402 13.24H26.5736ZM24.4402 22.92C24.4402 25.0408 22.721 26.76 20.6002 26.76H8.50689C6.38611 26.76 4.66688 25.0408 4.66688 22.92V15.6667C4.66935 14.4135 5.28107 13.2398 6.30688 12.52V16.64C6.30688 20.1378 9.14241 22.9733 12.6402 22.9733H23.7469C23.9791 22.965 24.2106 22.9427 24.4402 22.9067V22.92ZM12.6402 20.9733H23.7469C26.1371 20.966 28.0729 19.0302 28.0802 16.64V15.44H22.4402C21.4442 15.44 20.4892 15.0434 19.7862 14.3379C19.0832 13.6324 18.69 12.676 18.6936 11.68V6.04H12.6402C10.2761 6.08351 8.3804 8.00882 8.37355 10.3733V16.64C8.3804 19.0045 10.2761 20.9298 12.6402 20.9733Z" fill="white"/>
</svg>
