<svg width="17" height="19" viewBox="0 0 17 19" fill="none" xmlns="http://www.w3.org/2000/svg">
<path d="M12.5629 17.5491C13.367 17.8532 14.3193 17.4421 14.5737 16.6968L15.2479 14.7498C15.3668 14.434 15.3535 14.0894 15.2105 13.7816C14.8071 12.9137 12.762 11.8484 11.8329 11.7681C11.1087 11.7055 10.4195 12.1887 9.80948 12.477C9.13702 11.8215 8.55922 11.0966 8.08636 10.3201" stroke="#001A72" stroke-width="1.5" stroke-linecap="round" stroke-linejoin="round"/>
<path d="M6.85978 7.35597C7.46977 7.06781 8.30172 6.83241 8.65949 6.25862C9.11773 5.52367 9.3221 3.40419 8.77501 2.60638C8.58258 2.32576 8.28423 2.11803 7.93557 2.02191L5.78688 1.40853C4.96795 1.17552 4.05594 1.6478 3.87165 2.41652C1.98134 7.86049 4.39072 13.4596 9.49647 16.2905" stroke="#001A72" stroke-width="1.5" stroke-linecap="round" stroke-linejoin="round"/>
</svg>
