<svg width="40" height="40" viewBox="0 0 40 40" fill="none" xmlns="http://www.w3.org/2000/svg">
<g clip-path="url(#clip0_74_116)">
<path d="M2.24544 30.3784C2.22194 30.4625 2.19843 30.5373 2.17493 30.6167C1.91171 31.4672 1.64379 32.3223 1.46048 33.1962C1.38057 33.57 1.34767 33.9438 1.41348 34.3177C1.51688 34.9111 1.81771 35.3831 2.30184 35.7382C2.96929 36.2242 3.72135 36.4859 4.54861 36.5233C5.20196 36.5513 5.85061 36.5607 6.50396 36.57C7.45343 36.584 8.37 36.3971 9.26306 36.0794C10.4758 35.6494 11.5568 34.9812 12.5862 34.2195C13.9211 33.2289 15.2231 32.2055 16.5157 31.1635C17.1926 30.6167 17.9164 30.1401 18.7249 29.799C19.1244 29.6308 19.5333 29.5233 19.9752 29.5747C20.2948 29.6121 20.5909 29.7102 20.8682 29.8691C20.9951 29.9438 21.108 29.9438 21.2443 29.9158C22.1185 29.7102 22.9082 29.3317 23.6367 28.8177C24.0692 28.5093 24.5016 28.1962 24.934 27.8878C25.0233 27.8223 25.1174 27.7569 25.2114 27.6962C25.4699 27.528 25.7519 27.4812 26.0527 27.5607C26.4241 27.6541 26.7531 27.556 27.0257 27.3083C27.1949 27.1541 27.3359 26.9719 27.4816 26.7896C27.6367 26.5934 27.6508 26.584 27.8812 26.6775C28.1679 26.7943 28.3794 26.7569 28.5768 26.5186C28.7131 26.3551 28.8259 26.1681 28.934 25.9812C29.0327 25.8083 29.0374 25.799 29.2208 25.8971C29.4793 26.0326 29.6861 26.0233 29.8929 25.8177C30.1138 25.598 30.3159 25.3551 30.5181 25.1167C30.6544 24.9579 30.7061 24.7616 30.7014 24.5513C30.6967 24.2943 30.7061 24.0326 30.692 23.7756C30.6732 23.4532 30.7578 23.1541 30.8988 22.8691C31.2466 22.1681 31.5897 21.4672 31.9376 20.7663C32.0034 20.6354 32.0692 20.5093 32.135 20.3784C32.2666 20.4205 32.2854 20.5093 32.2713 20.598C32.135 21.3644 32.2102 22.1448 32.1444 22.9158C32.0927 23.5326 31.947 24.1261 31.6884 24.6868C31.2795 25.5794 30.7437 26.3831 30.0339 27.0607C29.672 27.4065 29.2396 27.598 28.7413 27.6635C28.6661 27.6728 28.5721 27.7008 28.5204 27.7569C28.2478 28.0513 27.9094 28.2523 27.5474 28.3971C27.2372 28.5186 26.9834 28.7008 26.7578 28.9392C26.4382 29.2756 26.0292 29.4251 25.578 29.4719C25.4652 29.4812 25.3524 29.4672 25.2443 29.4719C24.8964 29.4906 24.6097 29.6541 24.3653 29.8831C24.0927 30.1401 23.8436 30.4298 23.585 30.7055C23.4205 30.8784 23.2654 31.0607 23.0915 31.2195C22.786 31.4952 22.4429 31.6915 22.0104 31.6448C21.9164 31.6354 21.8741 31.6915 21.8177 31.7429C21.625 31.9251 21.437 32.1121 21.2255 32.2756C21.1033 32.3691 20.9434 32.4298 20.7977 32.4859C20.6426 32.542 20.4828 32.528 20.323 32.4766C20.0316 32.3831 19.7355 32.299 19.4346 32.2195C19.0727 32.1261 18.7249 32.1868 18.3865 32.327C17.8882 32.5326 17.4417 32.8177 17.0092 33.1308C16.1209 33.7709 15.2936 34.4859 14.504 35.2382C13.4887 36.2055 12.3982 37.0794 11.2513 37.8878C9.87411 38.8597 8.3465 39.4345 6.66847 39.6401C5.7848 39.7476 4.89644 39.8037 4.00337 39.8037C2.95519 39.8037 2.08093 39.4111 1.35707 38.6728C1.25836 38.5747 1.16906 38.4625 1.07975 38.3597C0.548611 37.7382 0.337095 37.0093 0.299492 36.2289C0.252489 35.2055 0.464005 34.2195 0.788329 33.2523C1.11265 32.2896 1.55449 31.3784 2.06212 30.5046C2.09503 30.4438 2.10913 30.3504 2.24544 30.3784Z" fill="white"/>
<path d="M28.9757 10.1917C29.0791 10.2758 29.0603 10.3645 29.0462 10.4533C28.9193 11.1402 28.7783 11.8225 28.6702 12.5094C28.5574 13.2244 28.4775 13.944 28.3834 14.6636C28.3599 14.8365 28.3458 15.0094 28.3176 15.1823C28.2471 15.673 28.2847 16.1543 28.4305 16.6309C28.5292 16.944 28.7078 17.2103 28.9569 17.4253C29.1308 17.5748 29.3282 17.6683 29.5585 17.7057C29.6854 17.7244 29.7607 17.6823 29.8077 17.5702C29.8688 17.4206 29.9299 17.2758 29.9863 17.1262C30.0991 16.8178 30.2119 16.5094 30.3247 16.2057C30.3529 16.1262 30.3905 16.0561 30.4328 15.9627C30.7101 16.0047 30.931 16.1262 31.0815 16.3552C31.2648 16.6262 31.3588 16.9253 31.3541 17.2617C31.34 18.0374 31.1708 18.7804 30.8652 19.4954C30.6913 19.9019 30.4563 20.2758 30.132 20.5842C29.8594 20.8459 29.5397 21.0234 29.159 21.0935C28.6984 21.1776 28.2941 21.0608 27.9463 20.7617C27.7912 20.6309 27.6549 20.4814 27.4951 20.3272C27.4669 20.4113 27.4434 20.4907 27.4199 20.5655C27.1896 21.3365 26.9122 22.0888 26.5597 22.8085C26.3106 23.3131 26.0051 23.7804 25.5961 24.173C25.2765 24.4814 24.9193 24.7337 24.4681 24.8225C23.8899 24.9346 23.3729 24.7197 23.0485 24.229C22.8464 23.9206 22.7383 23.5748 22.6631 23.2197C22.5597 22.7244 22.5268 22.2244 22.5315 21.7244C22.5315 21.6262 22.5315 21.5328 22.5315 21.4346C22.3764 21.3879 22.273 21.472 22.1837 21.5561C22.0474 21.6823 21.9158 21.8225 21.8077 21.9767C21.3094 22.6589 20.7407 23.2711 20.092 23.8085C19.2084 24.5421 18.226 25.1169 17.1731 25.5795C15.8476 26.1636 14.461 26.5561 13.0368 26.8272C11.5374 27.1122 10.0286 27.2664 8.50566 27.3365C7.6643 27.3739 6.82293 27.3879 5.98157 27.3272C4.63727 27.2337 3.32117 27.0094 2.11318 26.3692C1.83586 26.2244 1.57734 26.0421 1.32352 25.8599C1.17311 25.7524 1.065 25.6075 1.0039 25.4253C0.938094 25.2244 0.989798 25.0702 1.17311 24.958C1.36113 24.8412 1.57734 24.7851 1.79356 24.7804C2.2918 24.7711 2.79003 24.7711 3.28827 24.7945C4.03563 24.8272 4.78768 24.9159 5.53504 24.93C6.367 24.944 7.20366 24.9159 8.04033 24.8692C8.9663 24.8178 9.88756 24.7524 10.8088 24.6449C13.253 24.3692 15.6361 23.8505 17.9017 22.8739C19.6126 22.1356 21.1637 21.1636 22.4563 19.8131C22.8605 19.3879 23.2225 18.9253 23.5985 18.472C23.7348 18.3085 23.763 18.2711 23.9369 18.2244C23.9463 18.2711 23.9604 18.3131 23.9604 18.3599C23.9698 18.7384 23.9698 19.1122 23.9839 19.4907C23.998 19.8272 24.0403 20.1589 24.1484 20.4767C24.2894 20.8786 24.5339 21.187 24.9663 21.3085C25.6713 21.5094 26.32 21.2197 26.6161 20.5561C26.6772 20.4159 26.7195 20.2664 26.7571 20.1216C26.9028 19.5374 26.9545 18.9393 27.0062 18.3412C27.1097 17.2571 27.2084 16.1776 27.3071 15.0935C27.3776 14.3505 27.5609 13.6402 27.8335 12.9487C28.1249 12.2103 28.4023 11.4627 28.6937 10.7244C28.7454 10.5935 28.8065 10.4674 28.8723 10.3459C28.8911 10.2851 28.9381 10.2431 28.9757 10.1917Z" fill="white"/>
<path d="M39.7656 0.355152C39.7327 0.579451 39.6622 0.789731 39.5776 0.995338C39.3661 1.52338 39.0229 1.95796 38.5858 2.32711C38.0124 2.81777 37.4107 3.27104 36.795 3.71029C35.1452 4.88786 33.4483 5.99067 31.7233 7.05609C29.4295 8.47665 27.117 9.86917 24.8185 11.2851C23.1593 12.3084 21.5094 13.3458 19.8643 14.3925C18.6939 15.1402 17.6128 16.0047 16.6493 17.0047C16.4049 17.257 16.1557 17.5 15.9019 17.743C15.8173 17.8224 15.7092 17.8832 15.6105 17.9439C15.5823 17.958 15.5306 17.958 15.5071 17.9439C15.4883 17.9299 15.4836 17.8738 15.493 17.8458C15.5306 17.743 15.5635 17.6449 15.6152 17.5514C16.0899 16.6869 16.6634 15.8879 17.359 15.1823C18.2333 14.2991 19.1969 13.5234 20.2262 12.8318C21.7492 11.8084 23.3144 10.8458 24.8937 9.90655C26.8584 8.73833 28.8279 7.5888 30.7973 6.42524C32.7527 5.27104 34.6939 4.10282 36.5835 2.84581C37.3496 2.33646 38.1111 1.81777 38.802 1.20562C39.0511 0.985993 39.2768 0.738329 39.5165 0.504684C39.5823 0.443937 39.6528 0.387862 39.7186 0.331787C39.7421 0.33646 39.7515 0.345806 39.7656 0.355152Z" fill="white"/>
<path d="M11.1597 30.2055C11.1597 30.5046 11.0798 30.7335 10.9623 30.9532C10.6803 31.4812 10.3136 31.9438 9.87651 32.355C9.8295 32.3971 9.7778 32.4298 9.7261 32.4672C9.57098 32.57 9.42997 32.5606 9.28426 32.4391C9.04925 32.2382 8.81423 32.0419 8.56981 31.855C8.34889 31.6821 8.12328 31.5186 7.89296 31.355C7.70965 31.2242 7.69084 31.1821 7.80835 30.9999C8.33949 30.1868 8.87063 29.3737 9.40177 28.5606C9.50988 28.3971 9.57098 28.369 9.7073 28.4485C10.1679 28.7055 10.6051 28.9952 10.9059 29.4438C11.0704 29.6961 11.1456 29.9625 11.1597 30.2055Z" fill="white"/>
<path d="M7.79319 30.313C7.79319 30.7382 7.69918 31.0093 7.54877 31.2569C7.27145 31.7196 6.95652 32.1541 6.55229 32.5186C6.49119 32.5747 6.42538 32.6261 6.35488 32.6728C6.22797 32.7616 6.06346 32.7756 5.91305 32.6495C5.61222 32.3878 5.2973 32.1448 4.98238 31.8971C4.83197 31.7803 4.68155 31.6728 4.52644 31.5607C4.32903 31.4205 4.31963 31.3925 4.45124 31.1915C4.75676 30.7242 5.06698 30.2569 5.37251 29.7896C5.59342 29.4532 5.81904 29.1121 6.04466 28.7756C6.16687 28.5934 6.21387 28.5794 6.40188 28.6868C6.81551 28.9298 7.21034 29.1915 7.49707 29.5887C7.68038 29.8457 7.79319 30.1261 7.79319 30.313Z" fill="white"/>
<path d="M32.3546 30.2569C32.3593 30.4392 32.3029 30.6027 32.223 30.7616C32.0021 31.1868 31.7106 31.556 31.3581 31.8831C31.3252 31.9158 31.2829 31.9392 31.2406 31.9625C31.1325 32.028 31.0291 32.0186 30.9304 31.9392C30.78 31.813 30.6296 31.6868 30.4697 31.5653C30.2629 31.4065 30.0514 31.2476 29.8446 31.098C29.7224 31.0093 29.7083 30.9719 29.7882 30.8504C30.1971 30.2195 30.6107 29.5934 31.0197 28.9672C31.0949 28.8551 31.1419 28.8364 31.2453 28.8924C31.6025 29.0887 31.9362 29.3177 32.1713 29.6635C32.2888 29.841 32.3452 30.0373 32.3546 30.2569Z" fill="white"/>
<path d="M30.9096 33.4625C30.9143 33.6868 30.8438 33.8691 30.7545 34.0373C30.5383 34.4391 30.2563 34.7943 29.9225 35.1027C29.8896 35.1354 29.8473 35.1634 29.805 35.1868C29.6922 35.2569 29.5888 35.2569 29.4807 35.1681C29.3397 35.0466 29.194 34.9298 29.0483 34.813C28.832 34.6448 28.6158 34.4859 28.3949 34.3223C28.2774 34.2335 28.2633 34.2008 28.3432 34.0747C28.7521 33.4438 29.1611 32.8177 29.5747 32.1915C29.6499 32.0793 29.6922 32.0653 29.8003 32.1214C30.1528 32.3177 30.4819 32.5373 30.7122 32.8784C30.8344 33.056 30.9096 33.2756 30.9096 33.4625Z" fill="white"/>
<path d="M29.7843 30.4112C29.7843 30.6308 29.7138 30.8318 29.601 31.014C29.3895 31.3692 29.1497 31.7009 28.8442 31.9766C28.816 32 28.7878 32.028 28.7596 32.0514C28.5716 32.1963 28.4917 32.2009 28.3131 32.0514C28.0781 31.8598 27.843 31.6635 27.6033 31.4766C27.4905 31.3878 27.3683 31.3084 27.2508 31.2243C27.1474 31.1542 27.1427 31.1215 27.2038 31.014C27.2367 30.9579 27.2743 30.9065 27.3072 30.8551C27.6785 30.2944 28.0452 29.7336 28.4165 29.1776C28.44 29.1402 28.4635 29.1075 28.487 29.0701C28.5293 29.0093 28.5857 28.9907 28.6562 29.028C29.0557 29.2477 29.4224 29.5 29.648 29.9065C29.7514 30.0794 29.7843 30.2196 29.7843 30.4112Z" fill="white"/>
</g>
<defs>
<clipPath id="clip0_74_116">
<rect width="40" height="40" fill="white"/>
</clipPath>
</defs>
</svg>
