<svg width="21" height="21" viewBox="0 0 21 21" fill="none" xmlns="http://www.w3.org/2000/svg">
<path d="M9.55195 17.028C9.67694 17.146 9.84241 17.2116 10.0143 17.2112C10.1855 17.2127 10.3497 17.1432 10.4679 17.0193C10.5926 16.8978 10.6629 16.7311 10.6629 16.557C10.6629 16.3829 10.5926 16.2161 10.4679 16.0946L5.49554 11.1223H17.028C17.3894 11.1223 17.6823 10.8294 17.6823 10.468C17.6823 10.1067 17.3894 9.81377 17.028 9.81377H5.49363L10.4766 4.81535C10.6013 4.69385 10.6716 4.52712 10.6716 4.35302C10.6716 4.17891 10.6013 4.01218 10.4766 3.89068C10.2212 3.63556 9.80738 3.63556 9.55195 3.89068L3.44561 9.99701C3.19049 10.2524 3.19049 10.6663 3.44561 10.9217L9.55195 17.028Z" fill="white"/>
</svg>
