<svg width="20" height="20" viewBox="0 0 20 20" fill="none" xmlns="http://www.w3.org/2000/svg">
<path d="M1.22302 8C1.07706 8.6432 1 9.3126 1 10C1 14.9706 5.02944 19 10 19C14.9706 19 19 14.9706 19 10C19 5.02944 14.9706 1 10 1C7.69494 1 5.59227 1.86656 4 3.29168" stroke="white" stroke-width="1.5" stroke-linecap="round"/>
<path d="M10 10C11.6569 10 13 8.6569 13 7C13 5.34315 11.6569 4 10 4C8.3431 4 7 5.34315 7 7C7 8.6569 8.3431 10 10 10Z" stroke="white" stroke-width="1.5"/>
<path d="M13 13C14.8283 13 16 15.0886 16 16.7083" stroke="white" stroke-width="1.5" stroke-linecap="round" stroke-linejoin="round"/>
<path d="M4 16.7083C4 15.0886 5.17172 13 7 13H9" stroke="white" stroke-width="1.5" stroke-linecap="round" stroke-linejoin="round"/>
</svg>
